Coordinates
version=1
nRows=27
nColumns=12
inDegrees=yes

Units are S.I. units (second, meters, Newtons, ...)
Angles are in degrees

endheader
time	SC_y	SC_z	SC_x	AC_y	AC_z	AC_x	GH_y	GH_z	GH_yy	EL_x	PS_y
       0.0              -49.49          37.95          64.64           43.1          8.906          12.47          97.12          19.47          46.24          81.59          125.3
   0.02201              -49.49          37.95          64.64          43.11          8.902          12.47          97.08          19.48          46.23           81.6          125.3
   0.04401              -49.48          37.94          64.64          43.11          8.898          12.47          97.04          19.48          46.22           81.6          125.3
   0.06602              -49.48          37.94          64.64          43.11          8.894          12.47           97.0          19.49          46.21           81.6          125.3
   0.08802              -49.47          37.94          64.64          43.11          8.889          12.47          96.96           19.5           46.2          81.61          125.2
      0.11              -49.47          37.94          64.64          43.11          8.885          12.47          96.91           19.5          46.18          81.61          125.2
     0.132              -49.46          37.94          64.64          43.12          8.879          12.47          96.86          19.51          46.17          81.62          125.2
     0.154              -49.46          37.93          64.64          43.12          8.874          12.47          96.81          19.52          46.15          81.62          125.2
     0.176              -49.45          37.93          64.64          43.12          8.868          12.47          96.75          19.53          46.14          81.63          125.2
    0.1981              -49.44          37.93          64.64          43.13          8.862          12.47          96.69          19.54          46.12          81.64          125.1
    0.2201              -49.44          37.92          64.64          43.13          8.855          12.48          96.62          19.55           46.1          81.64          125.1
    0.2421              -49.43          37.92          64.64          43.13          8.848          12.48          96.55          19.56          46.08          81.65          125.1
    0.2641              -49.42          37.92          64.65          43.14           8.84          12.48          96.47          19.57          46.06          81.66          125.1
    0.2861              -49.41          37.91          64.65          43.14          8.832          12.48          96.39          19.58          46.03          81.67          125.0
    0.3081              -49.41          37.91          64.65          43.15          8.822          12.48           96.3          19.59          46.01          81.68          125.0
    0.3301               -49.4           37.9          64.65          43.15          8.813          12.48           96.2          19.61          45.98          81.69          125.0
    0.3521              -49.38           37.9          64.65          43.16          8.802          12.48           96.1          19.62          45.95           81.7          124.9
    0.3741              -49.37          37.89          64.65          43.16           8.79          12.48          95.98          19.64          45.92          81.71          124.9
    0.3961              -49.36          37.88          64.65          43.17          8.777          12.49          95.86          19.66          45.88          81.72          124.9
    0.4181              -49.35          37.88          64.65          43.18          8.763          12.49          95.72          19.68          45.84          81.74          124.8
    0.4401              -49.33          37.87          64.65          43.18          8.748          12.49          95.57           19.7           45.8          81.75          124.7
    0.4621              -49.31          37.86          64.66          43.19          8.731          12.49           95.4          19.73          45.75          81.77          124.7
    0.4841               -49.3          37.85          64.66           43.2          8.712          12.49          95.22          19.75          45.69          81.79          124.6
    0.5061              -49.27          37.84          64.66          43.21          8.691           12.5          95.01          19.78          45.64          81.81          124.5
    0.5281              -49.25          37.83          64.66          43.22          8.668           12.5          94.79          19.82          45.57          81.83          124.5
    0.5501              -49.23          37.82          64.67          43.24          8.643           12.5          94.53          19.85           45.5          81.86          124.4
    0.5722               -49.2           37.8          64.67          43.25          8.614          12.51          94.25          19.89          45.42          81.89          124.3
